<?xml version="1.0" standalone="no"?>
<!DOCTYPE svg PUBLIC "-//W3C//DTD SVG 20010904//EN"
 "http://www.w3.org/TR/2001/REC-SVG-20010904/DTD/svg10.dtd">
<svg version="1.0" xmlns="http://www.w3.org/2000/svg"
 width="100%" height="100%" viewBox="0 0 128.000000 128.000000"
 preserveAspectRatio="xMidYMid meet">

<g transform="translate(0.000000,128.000000) scale(0.100000,-0.100000)"
fill="#000000" stroke="none">
<path d="M1038 1249 c-32 -16 -58 -34 -58 -39 0 -5 -72 -46 -160 -90 l-160
-80 0 29 c0 42 -29 49 -43 11 -6 -17 -14 -29 -18 -28 -3 2 -68 32 -142 68
-100 48 -137 70 -137 83 0 26 -45 67 -72 67 -35 -1 -78 -44 -78 -78 0 -13 116
-66 128 -58 6 4 72 -24 147 -62 l137 -68 -151 -72 c-137 -65 -155 -71 -195
-66 -36 5 -47 3 -65 -15 -25 -25 -27 -51 -6 -92 l16 -29 59 30 c33 17 60 36
60 44 0 10 285 156 305 156 3 0 5 -57 5 -127 0 -116 -2 -129 -22 -150 l-21
-23 66 0 c53 0 65 3 61 14 -3 8 -12 17 -20 20 -11 4 -14 32 -14 136 0 71 2
130 5 130 3 0 70 -33 150 -72 127 -64 146 -77 155 -104 22 -65 101 -65 133 0
l15 33 -58 28 c-32 15 -63 24 -69 21 -10 -6 -261 113 -285 135 -5 5 59 41 149
84 108 51 162 72 169 65 32 -32 106 7 106 55 0 26 -19 75 -29 75 -3 -1 -32
-14 -63 -31z"/>
<path d="M536 594 c-9 -8 -16 -29 -16 -45 l0 -29 120 0 c118 0 120 0 120 23 0
12 -7 33 -16 45 -14 20 -24 22 -104 22 -67 0 -92 -4 -104 -16z"/>
<path d="M520 280 l0 -191 118 3 117 3 3 188 2 187 -120 0 -120 0 0 -190z
m179 86 c7 -8 11 -37 9 -68 l-3 -53 -67 -3 -68 -3 0 65 c0 42 4 66 13 69 27
12 105 7 116 -7z"/>
<path d="M612 308 c2 -15 11 -24 26 -26 18 -3 22 1 22 22 0 21 -5 26 -26 26
-21 0 -25 -4 -22 -22z"/>
<path d="M550 41 c0 -39 123 -56 153 -23 10 10 17 22 17 25 0 4 -38 7 -85 7
-47 0 -85 -4 -85 -9z"/>
</g>
</svg>
